<svg
            width="30"
            height="20"
            version="1.1"
            id="Layer_1"
            xmlns="http://www.w3.org/2000/svg"
            xmlnsXlink="http://www.w3.org/1999/xlink"
            x="0px"
            y="0px"
            viewBox="0 0 48 48"
            xmlSpace="preserve"
        >
            <g id="Group_832" transform="translate(0 -9.846)">
                <g id="Group_827" transform="translate(0 9.846)">
                    <g id="Group_826" transform="translate(0 0)">
                        <path
                            id="Path_393"
                            d="M46.9,8.5C46.6,8.2,46.3,8,45.8,8H9.9L9.1,3.6C8.8,3,8.3,2.5,7.7,2.5H1.9c-0.8,0-1.4,0.8-1.4,1.4
                            s0.6,1.4,1.4,1.4h4.7l6.9,29.5c0.3,0.6,0.6,1.1,1.4,1.1h27c0.8,0,1.4-0.6,1.4-1.4c0-0.8-0.6-1.4-1.4-1.4H16l-1.1-4.4h27
                            c0.6,0,1.1-0.6,1.4-1.1l4.1-17.9C47.2,9.1,47.2,8.8,46.9,8.5z M40.8,25.9H14.4l-3.6-15.2h33.4L40.8,25.9z"
                        />
                    </g>
                </g>
                <g id="Group_829" transform="translate(8.935 30.965)">
                    <g id="Group_828">
                        <path
                            id="Path_394"
                            d="M11.3,16.4c-2.8,0-5,2.2-5,5s2.2,5,5,5s5-2.2,5-5l0,0C16.3,18.6,14.1,16.4,11.3,16.4z M11.3,23.6
                            c-1.1,0-2.2-1.1-2.2-2.2s1.1-2.2,2.2-2.2c1.4,0,2.2,0.8,2.2,2.2C13.5,22.5,12.7,23.6,11.3,23.6z"
                        />
                    </g>
                </g>
                <g id="Group_831" transform="translate(18.682 30.965)">
                    <g id="Group_830">
                        <path
                            id="Path_395"
                            d="M17.7,16.4c-2.8,0-5,2.2-5,5s2.2,5,5,5s5-2.2,5-5l0,0C22.6,18.6,20.4,16.4,17.7,16.4z M17.7,23.6
                            c-1.1,0-2.2-1.1-2.2-2.2s1.1-2.2,2.2-2.2c1.1,0,2.2,1.1,2.2,2.2S19.1,23.6,17.7,23.6z"
                        />
                    </g>
                </g>
            </g>
        </svg>