<?xml version="1.0" encoding="utf-8"?>
<svg xmlns="http://www.w3.org/2000/svg" id="_1" style="enable-background:new 0 0 24.4 20.5;" version="1.1" viewBox="0 0 24.4 20.5" x="0px" y="0px">
<g id="Group_825" transform="translate(0 -0.003)">
	<g id="Group_824" transform="translate(0 0.003)">
		<path d="M20,16.9l-4.4-4.4c2.1-2.6,1.7-6.5-0.9-8.7S8.2,2.1,6.1,4.8S4.3,11.3,7,13.4c2.3,1.8,5.5,1.8,7.7,0l4.4,4.4&#xD;&#xA;			c0.3,0.3,0.7,0.3,0.9,0C20.3,17.6,20.3,17.2,20,16.9z M10.9,13.5C8.2,13.5,6,11.3,6,8.6C6,6,8.2,3.8,10.9,3.8s4.9,2.2,4.9,4.9v0&#xD;&#xA;			C15.7,11.3,13.5,13.5,10.9,13.5z" id="Path_392"/>
	</g>
</g>
</svg>