<svg
            width="30"
            height="20"
            version="1.1"
            id="Layer_1"
            xmlns="http://www.w3.org/2000/svg"
            xmlnsXlink="http://www.w3.org/1999/xlink"
            x="0px"
            y="0px"
            viewBox="0 0 48 48"
            xmlSpace="preserve"
        >
            <g id="Layer_259">
                <g>
                    <path
                        d="M43.3,48H4.1c-0.9,0-1.5-0.6-1.5-1.5c0-11.6,9.5-21.1,21.1-21.1s21.1,9.5,21.1,21.1C44.8,47.4,44.2,48,43.3,48z M5.7,44.9
           h36.1c-0.9-9.2-8.6-16.5-18.1-16.5S6.6,35.8,5.7,44.9z"
                    />
                </g>
            </g>
            <g id="Layer_260">
                <g>
                    <path
                        d="M24,22.9c-6.1,0-11.3-5.2-11.3-11.3S17.9,0.3,24,0.3s11.3,5.2,11.3,11.3S30.5,22.9,24,22.9z M24,3.3
           c-4.6,0-8.3,3.7-8.3,8.3s3.7,8.3,8.3,8.3s8.3-3.7,8.3-8.3S28.6,3.3,24,3.3z"
                    />
                </g>
            </g>
        </svg>