<?xml version="1.0" encoding="utf-8"?>
<svg xmlns="http://www.w3.org/2000/svg" data-name="圖層 1" id="__1" version="1.1" viewBox="0 0 457 106">
  <defs>
    <style>
      .cls-1 {
        fill: gold;
        stroke-width: 0px;
      }
    </style>
  </defs>
  <polygon class="cls-1" points="48.4 10.8 58.4 41.5 90.7 41.5 64.5 60.5 74.6 91.2 48.4 72.2 22.2 91.2 32.2 60.5 6 41.5 38.4 41.5 48.4 10.8"/>
  <polygon class="cls-1" points="137.4 11.3 147.4 42 179.7 42 153.5 61 163.6 91.7 137.4 72.7 111.2 91.7 121.2 61 95 42 127.4 42 137.4 11.3"/>
  <polygon class="cls-1" points="226.4 11.3 236.4 42 268.7 42 242.5 61 252.6 91.7 226.4 72.7 200.2 91.7 210.2 61 184 42 216.4 42 226.4 11.3"/>
  <polygon class="cls-1" points="315.4 11.3 325.4 42 357.7 42 331.5 61 341.6 91.7 315.4 72.7 289.2 91.7 299.2 61 273 42 305.4 42 315.4 11.3"/>
  <polygon class="cls-1" points="404.4 11.3 414.4 42 446.7 42 420.5 61 430.6 91.7 404.4 72.7 378.2 91.7 388.2 61 362 42 394.4 42 404.4 11.3"/>
</svg>