<?xml version="1.0" encoding="utf-8"?>
<!-- Generator: $$$/GeneralStr/196=Adobe Illustrator 27.6.0, SVG Export Plug-In . SVG Version: 6.00 Build 0)  -->
<svg version="1.1" id="圖層_1" xmlns="http://www.w3.org/2000/svg" xmlns:xlink="http://www.w3.org/1999/xlink" x="0px" y="0px"
	 viewBox="0 0 48 48" style="enable-background:new 0 0 48 48;" xml:space="preserve">
<g>
	<path d="M40.1,8.5c-3-1.4-6.2-2.4-9.6-3c-0.4,0.7-0.9,1.7-1.2,2.5c-3.6-0.5-7.1-0.5-10.6,0c-0.3-0.8-0.8-1.8-1.2-2.5
		c-3.4,0.6-6.6,1.6-9.6,3C1.8,17.7,0.2,26.6,1,35.4c4,3,7.9,4.8,11.7,6c0.9-1.3,1.8-2.7,2.5-4.1c-1.4-0.5-2.7-1.2-4-1.9
		c0.3-0.2,0.7-0.5,1-0.8c7.6,3.6,15.9,3.6,23.5,0c0.3,0.3,0.6,0.5,1,0.8c-1.3,0.8-2.6,1.4-4,1.9c0.7,1.5,1.6,2.8,2.5,4.1
		c3.8-1.2,7.7-3,11.7-6C47.9,25.2,45.3,16.4,40.1,8.5z M16.3,30c-2.3,0-4.2-2.1-4.2-4.7s1.8-4.7,4.2-4.7c2.3,0,4.2,2.1,4.2,4.7
		C20.5,27.8,18.6,30,16.3,30z M31.7,30c-2.3,0-4.2-2.1-4.2-4.7s1.8-4.7,4.2-4.7c2.3,0,4.2,2.1,4.2,4.7C35.9,27.8,34,30,31.7,30z"/>
</g>
</svg>
