<?xml version="1.0" encoding="utf-8"?>
<!-- Generator: $$$/GeneralStr/196=Adobe Illustrator 27.6.0, SVG Export Plug-In . SVG Version: 6.00 Build 0)  -->
<svg version="1.1" id="圖層_1" xmlns="http://www.w3.org/2000/svg" xmlns:xlink="http://www.w3.org/1999/xlink" x="0px" y="0px"
	 viewBox="0 0 48 48" style="enable-background:new 0 0 48 48;" xml:space="preserve">
<style type="text/css">
	.st0{fill-rule:evenodd;clip-rule:evenodd;}
</style>
<g>
	<g>
		<path id="a_00000125583934032486515200000014007328087270329234_" class="st0" d="M45.9,15.4c0,0-0.4-3.2-1.9-4.5
			c-1.7-1.9-3.5-1.9-4.5-1.9C33.3,8.7,24,8.7,24,8.7s-9.3,0-15.6,0.4C7.5,9.3,5.6,9.3,3.9,11c-1.3,1.3-1.9,4.5-1.9,4.5
			S1.7,19,1.7,22.7V26c0,3.5,0.4,7.3,0.4,7.3s0.4,3.2,1.9,4.5c1.7,1.9,3.9,1.7,4.8,1.9C12.3,40,24,40,24,40s9.3,0,15.6-0.6
			c0.9-0.2,2.8-0.2,4.5-1.9c1.3-1.3,1.9-4.5,1.9-4.5s0.4-3.5,0.4-7.3v-3.3C46.3,19,45.9,15.4,45.9,15.4L45.9,15.4z M19.4,30.1V17.7
			L31.4,24L19.4,30.1z"/>
	</g>
</g>
</svg>
