<?xml version="1.0" encoding="utf-8"?>
<!-- Generator: Adobe Illustrator 26.4.1, SVG Export Plug-In . SVG Version: 6.00 Build 0)  -->
<svg version="1.1" id="圖層_1" xmlns="http://www.w3.org/2000/svg" xmlns:xlink="http://www.w3.org/1999/xlink" x="0px" y="0px"
	 viewBox="0 0 1792 1792" style="enable-background:new 0 0 1792 1792;" xml:space="preserve">
<g>
	<path d="M1741.8,841.3c0,18.7,0,37.4,0,56.1c-0.8,1.4-2.3,2.6-2.5,4.1c-7,51.3-29,95.1-64,133c-3.7,4-5.5,11.9-4.8,17.5
		c9.7,82.6-6.9,159.8-47.9,231.7c-59.1,103.6-149.2,173.5-252.9,227.1c-110.6,57.2-229.1,88.3-352.8,100.8
		c-125.8,12.8-250.5,6.8-373.8-21.4c-143.2-32.8-274.6-90.3-382.9-192.1c-98-92-152.8-203-139.3-341c1.2-12.6-1.8-21-9.8-30.7
		c-63.6-76.8-79.1-162.7-38.3-254c59.9-133.8,219-180.1,343.5-102.7c8.4,5.2,15.3,8,25.5,3.1C569.1,612,704,582.3,844.6,577
		c12.3-0.5,18.2-4.6,22.3-16.3c30.4-85.9,61.6-171.6,92.6-257.3c12.6-35,25.4-69.9,38.3-105.3c6.7,1.4,12,2.3,17.3,3.6
		c93.8,23.5,187.5,47.1,281.3,70.7c9.4,2.4,16.2,3.4,23.1-7.2c40.7-62.2,112-91.5,184.6-77.3c67.5,13.2,125.8,71.6,138.8,139
		c14.2,73.7-15.8,145-78.3,186c-105.8,69.5-252.4,4.6-272-121c-2.3-14.7-7.3-21.1-22.1-24.2c-33.3-7-66.1-16.3-99.2-24.5
		c-36.6-9.1-73.3-18-110.8-27.2c-31.7,87.5-62.8,173.6-94.5,261.1c10.6,1.1,19.9,2.3,29.1,3.1c122.2,9.7,239.6,38.2,350.5,91
		c12.3,5.8,20.9,6.1,32.8-1.4c120.7-76.2,279.1-30.5,339.7,98.6C1729,791.3,1734.1,816.9,1741.8,841.3z M1151,1146.3
		c75.5-0.3,137.4-61.9,138.1-137.4c0.7-75.3-62.7-138.6-138.7-138.4c-75.4,0.2-137.5,62-138.1,137.4
		C1011.8,1083.3,1075.3,1146.6,1151,1146.3z M663.2,1146.4c75.6-0.1,137.3-61.6,137.7-137.3c0.4-76.1-62.1-138.8-138.2-138.5
		c-75.6,0.3-137.1,61.5-137.9,137.3C524.1,1083.2,587.3,1146.5,663.2,1146.4z M603.6,1357.4c178.7,118.4,426.8,117.2,604.1-0.1
		c-17.2-27.1-34.5-54.2-51.8-81.4c-167.2,95.5-333.2,95.6-500.5,0C638.2,1303.1,620.9,1330.3,603.6,1357.4z"/>
</g>
</svg>
