<?xml version="1.0" encoding="utf-8"?>
<svg xmlns="http://www.w3.org/2000/svg" id="_1" style="enable-background:new 0 0 24.4 20.5;" version="1.1" viewBox="0 0 24.4 20.5" x="0px" y="0px">
<style type="text/css">
	.st0{fill:#B22234;}
	.st1{fill:#FFFFFF;}
	.st2{fill:#3C3B6E;}
</style>
<rect class="st0" height="10.1" width="19.1" x="2.6" y="5.5"/>
<g>
	<path d="M2.6,6.7h19.1 M21.8,8.2H2.6 M2.6,9.8h19.1 M21.8,11.3H2.6 M2.6,12.9h19.1 M21.8,14.4H2.6"/>
	<path class="st1" d="M21.8,14.8H2.6v-0.8h19.1V14.8z M21.8,13.3H2.6v-0.8h19.1V13.3z M21.8,11.7H2.6V11h19.1V11.7z M21.8,10.2H2.6&#xD;&#xA;		V9.4h19.1V10.2z M21.8,8.6H2.6V7.9h19.1V8.6z M21.8,7.1H2.6V6.3h19.1V7.1z"/>
</g>
<rect class="st2" height="5.4" width="7.7" x="2.6" y="5.5"/>
<g>
	<g id="s18_00000037650859292062481030000017590519780541739430_">
		<g id="s9_00000034801628965220127380000016488753686354799806_">
			<g id="s5_00000008147167110323964170000010998286282916374157_">
				<g id="s4_00000078042605758817373800000001706615953800459676_">
					<path class="st1" d="M3.3,5.8l0.2,0.6L3,6h0.6L3.1,6.3L3.3,5.8z" id="s_00000129903785868735510640000007561747287429187200_"/>
					<g>
						<path class="st1" d="M3.3,6.8l0.2,0.6L3,7.1h0.6L3.1,7.4L3.3,6.8&#xD;&#xA;							z" id="s_00000011029133566774140360000005531227392233880712_"/>
					</g>
					<g>
						<path class="st1" d="M3.3,7.9l0.2,0.6L3,8.1h0.6L3.1,8.5L3.3,7.9&#xD;&#xA;							z" id="s_00000123403596541720893970000017405236833995135118_"/>
					</g>
					<g>
						<path class="st1" d="M3.3,9l0.2,0.6L3,9.2h0.6L3.1,9.6L3.3,9z" id="s_00000005958024556906978470000004705898182874307517_"/>
					</g>
				</g>
				<g>
					<path class="st1" d="M3.3,10.1l0.2,0.6L3,10.3h0.6l-0.5,0.3&#xD;&#xA;						L3.3,10.1z" id="s_00000061466023088180395990000006935092210664039047_"/>
				</g>
			</g>
			<g>
				<g id="s4_00000095335801793019088590000002327698905995803554_">
					<path class="st1" d="M3.9,6.3l0.2,0.6L3.6,6.5h0.6L3.7,6.9&#xD;&#xA;						L3.9,6.3z" id="s_00000093178816974677466650000009153341345053949326_"/>
					<g>
						<path class="st1" d="M3.9,7.4L4.1,8L3.6,7.6h0.6L3.7,8L3.9,7.4z" id="s_00000003783220248770051200000002847807427644222109_"/>
					</g>
					<g>
						<path class="st1" d="M3.9,8.5L4.1,9L3.6,8.7h0.6L3.7,9L3.9,8.5z" id="s_00000063625607402803787150000004964488484337797823_"/>
					</g>
					<g>
						<path class="st1" d="M3.9,9.6l0.2,0.6L3.6,9.8h0.6l-0.5,0.3&#xD;&#xA;							L3.9,9.6z" id="s_00000152261924293588252260000007796702298498822040_"/>
					</g>
				</g>
			</g>
		</g>
		<g>
			<g id="s9_00000131369123303077010560000008335987292610983080_">
				<g id="s5_00000045618273619317493250000018338817275903644324_">
					<g id="s4_00000085215892190548606230000010241894089402478782_">
						<path class="st1" d="M4.5,5.8l0.2,0.6L4.2,6h0.6L4.3,6.3L4.5,5.8&#xD;&#xA;							z" id="s_00000027595593436147071490000015443996208238922427_"/>
						<g>
							<path class="st1" d="M4.5,6.8l0.2,0.6L4.2,7.1h0.6L4.3,7.4&#xD;&#xA;								L4.5,6.8z" id="s_00000032607455725709247050000000960072444949247153_"/>
						</g>
						<g>
							<path class="st1" d="M4.5,7.9l0.2,0.6L4.2,8.1h0.6L4.3,8.5&#xD;&#xA;								L4.5,7.9z" id="s_00000070835913977597239470000016699037576430342797_"/>
						</g>
						<g>
							<path class="st1" d="M4.5,9l0.2,0.6L4.2,9.2h0.6L4.3,9.6L4.5,9z" id="s_00000089556072871347909920000002338724872945465480_"/>
						</g>
					</g>
					<g>
						<path class="st1" d="M4.5,10.1l0.2,0.6l-0.5-0.3h0.6l-0.5,0.3&#xD;&#xA;							L4.5,10.1z" id="s_00000105397431159658411030000010539238915195494546_"/>
					</g>
				</g>
				<g>
					<g id="s4_00000169524029199672649420000017521725750756910267_">
						<path class="st1" d="M5.2,6.3l0.2,0.6L4.9,6.5h0.6L5,6.9L5.2,6.3&#xD;&#xA;							z" id="s_00000005969695948217877930000016639670206358198203_"/>
						<g>
							<path class="st1" d="M5.2,7.4L5.4,8L4.9,7.6h0.6L5,8L5.2,7.4z" id="s_00000123402167448997366090000002448980328725960343_"/>
						</g>
						<g>
							<path class="st1" d="M5.2,8.5L5.4,9L4.9,8.7h0.6L5,9L5.2,8.5z" id="s_00000049216258496566753150000004505914320023677362_"/>
						</g>
						<g>
							<path class="st1" d="M5.2,9.6l0.2,0.6L4.9,9.8h0.6L5,10.1&#xD;&#xA;								L5.2,9.6z" id="s_00000176755734271098134430000018229816677777240721_"/>
						</g>
					</g>
				</g>
			</g>
		</g>
	</g>
	<g>
		<g id="s18_00000154395178631364783090000014463656801296978816_">
			<g id="s9_00000070111055346505376360000010603854989609447315_">
				<g id="s5_00000121994472918683095540000016037908464850070418_">
					<g id="s4_00000089546213779726128170000001538369647627458475_">
						<path class="st1" d="M5.8,5.8L6,6.3L5.5,6h0.6L5.6,6.3L5.8,5.8z" id="s_00000174560793730847982150000016617738678438584765_"/>
						<g>
							<path class="st1" d="M5.8,6.8L6,7.4L5.5,7.1h0.6L5.6,7.4&#xD;&#xA;								L5.8,6.8z" id="s_00000008121079224144428300000013271122832053546646_"/>
						</g>
						<g>
							<path class="st1" d="M5.8,7.9L6,8.5L5.5,8.1h0.6L5.6,8.5&#xD;&#xA;								L5.8,7.9z" id="s_00000134243629776194643580000013951208545719704470_"/>
						</g>
						<g>
							<path class="st1" d="M5.8,9L6,9.6L5.5,9.2h0.6L5.6,9.6L5.8,9z" id="s_00000017479422125326178470000007068914264971822257_"/>
						</g>
					</g>
					<g>
						<path class="st1" d="M5.8,10.1L6,10.7l-0.5-0.3h0.6l-0.5,0.3&#xD;&#xA;							L5.8,10.1z" id="s_00000173860946936168577990000013839210661684525757_"/>
					</g>
				</g>
				<g>
					<g id="s4_00000181053836824179099340000016869831090449424044_">
						<path class="st1" d="M6.4,6.3l0.2,0.6L6.2,6.5h0.6L6.3,6.9&#xD;&#xA;							L6.4,6.3z" id="s_00000157309729908097727270000009107393164500239502_"/>
						<g>
							<path class="st1" d="M6.4,7.4L6.6,8L6.2,7.6h0.6L6.3,8L6.4,7.4z" id="s_00000112629134860668159600000016138278001028144533_"/>
						</g>
						<g>
							<path class="st1" d="M6.4,8.5L6.6,9L6.2,8.7h0.6L6.3,9L6.4,8.5z" id="s_00000121271646921166288340000009265835684760018595_"/>
						</g>
						<g>
							<path class="st1" d="M6.4,9.6l0.2,0.6L6.2,9.8h0.6l-0.5,0.3&#xD;&#xA;								L6.4,9.6z" id="s_00000159454086735053061750000010746426262334296968_"/>
						</g>
					</g>
				</g>
			</g>
			<g>
				<g id="s9_00000009550905074939632100000012497612710171403141_">
					<g id="s5_00000048460403627678893090000001390314422360526748_">
						<g id="s4_00000095338856231264376710000003667165037121932161_">
							<path class="st1" d="M7.1,5.8l0.2,0.6L6.8,6h0.6L6.9,6.3&#xD;&#xA;								L7.1,5.8z" id="s_00000120540542054409441900000003833758725640610232_"/>
							<g>
								<path class="st1" d="M7.1,6.8l0.2,0.6L6.8,7.1h0.6L6.9,7.4&#xD;&#xA;									L7.1,6.8z" id="s_00000175291681216838532250000012709932617412856973_"/>
							</g>
							<g>
								<path class="st1" d="M7.1,7.9l0.2,0.6L6.8,8.1h0.6L6.9,8.5&#xD;&#xA;									L7.1,7.9z" id="s_00000120550442801287730720000004165349011440957580_"/>
							</g>
							<g>
								<path class="st1" d="M7.1,9l0.2,0.6L6.8,9.2h0.6L6.9,9.6L7.1,9&#xD;&#xA;									z" id="s_00000139992854498157217670000012648515488588425150_"/>
							</g>
						</g>
						<g>
							<path class="st1" d="M7.1,10.1l0.2,0.6l-0.5-0.3h0.6l-0.5,0.3&#xD;&#xA;								L7.1,10.1z" id="s_00000145757402520228667100000017618614459029515967_"/>
						</g>
					</g>
					<g>
						<g id="s4_00000084522357182698000740000000679722387782447757_">
							<path class="st1" d="M7.7,6.3l0.2,0.6L7.4,6.5H8L7.5,6.9&#xD;&#xA;								L7.7,6.3z" id="s_00000178910399708545103710000017718833579249124026_"/>
							<g>
								<path class="st1" d="M7.7,7.4L7.9,8L7.4,7.6H8L7.5,8L7.7,7.4z" id="s_00000014608048613415137940000011314892993947394703_"/>
							</g>
							<g>
								<path class="st1" d="M7.7,8.5L7.9,9L7.4,8.7H8L7.5,9L7.7,8.5z" id="s_00000055701027138021713580000018438952244010803853_"/>
							</g>
							<g>
								<path class="st1" d="M7.7,9.6l0.2,0.6L7.4,9.8H8l-0.5,0.3&#xD;&#xA;									L7.7,9.6z" id="s_00000016063363399920776570000018433735749802171288_"/>
							</g>
						</g>
					</g>
				</g>
			</g>
		</g>
	</g>
	<g>
		<g id="s9_00000135675726636839475030000011375371972706264194_">
			<g id="s5_00000059994680432397525080000017088693106582168491_">
				<g id="s4_00000024703421714699985400000003972026241496804764_">
					<path class="st1" d="M8.4,5.8l0.2,0.6L8.1,6h0.6L8.2,6.3L8.4,5.8z" id="s_00000049901305112569156820000008231054384548177313_"/>
					<g>
						<path class="st1" d="M8.4,6.8l0.2,0.6L8.1,7.1h0.6L8.2,7.4&#xD;&#xA;							L8.4,6.8z" id="s_00000181771006157326410060000005559999672682065834_"/>
					</g>
					<g>
						<path class="st1" d="M8.4,7.9l0.2,0.6L8.1,8.1h0.6L8.2,8.5&#xD;&#xA;							L8.4,7.9z" id="s_00000129903947122352424250000006482140418910141592_"/>
					</g>
					<g>
						<path class="st1" d="M8.4,9l0.2,0.6L8.1,9.2h0.6L8.2,9.6L8.4,9z" id="s_00000109032025468423299910000014683626276793207716_"/>
					</g>
				</g>
				<g>
					<path class="st1" d="M8.4,10.1l0.2,0.6l-0.5-0.3h0.6l-0.5,0.3&#xD;&#xA;						L8.4,10.1z" id="s_00000052078099192777073660000013366360270029039257_"/>
				</g>
			</g>
			<g>
				<g id="s4_00000164499565958657046720000005698269098405713568_">
					<path class="st1" d="M9,6.3l0.2,0.6L8.7,6.5h0.6L8.8,6.9L9,6.3z" id="s_00000127761991161792028620000004765319285035549071_"/>
					<g>
						<path class="st1" d="M9,7.4L9.2,8L8.7,7.6h0.6L8.8,8L9,7.4z" id="s_00000135660972085810676700000013727158961259307400_"/>
					</g>
					<g>
						<path class="st1" d="M9,8.5L9.2,9L8.7,8.7h0.6L8.8,9L9,8.5z" id="s_00000088818007404672903230000000406493716554409905_"/>
					</g>
					<g>
						<path class="st1" d="M9,9.6l0.2,0.6L8.7,9.8h0.6l-0.5,0.3L9,9.6z" id="s_00000152967801659237602070000007009659931733944220_"/>
					</g>
				</g>
			</g>
		</g>
	</g>
	<g>
		<g id="s5_00000025417912927221954540000018041308713480254372_">
			<g id="s4_00000118393299774997216130000006394160526128246970_">
				<path class="st1" d="M9.6,5.8l0.2,0.6L9.3,6h0.6L9.5,6.3L9.6,5.8z" id="s_00000182508471878399399480000000348631842598381470_"/>
				<g>
					<path class="st1" d="M9.6,6.8l0.2,0.6L9.3,7.1h0.6L9.5,7.4&#xD;&#xA;						L9.6,6.8z" id="s_00000000919658973405415080000006292428978806107264_"/>
				</g>
				<g>
					<path class="st1" d="M9.6,7.9l0.2,0.6L9.3,8.1h0.6L9.5,8.5&#xD;&#xA;						L9.6,7.9z" id="s_00000163060492355153767990000002915018613708313783_"/>
				</g>
				<g>
					<path class="st1" d="M9.6,9l0.2,0.6L9.3,9.2h0.6L9.5,9.6L9.6,9z" id="s_00000050664877416742627420000008765209467195547278_"/>
				</g>
			</g>
			<g>
				<path class="st1" d="M9.6,10.1l0.2,0.6l-0.5-0.3h0.6l-0.5,0.3&#xD;&#xA;					L9.6,10.1z" id="s_00000167376051572974865990000009627831955598790309_"/>
			</g>
		</g>
	</g>
</g>
</svg>